<svg width="34" height="27" viewBox="0 0 34 27" fill="none" xmlns="http://www.w3.org/2000/svg">
<rect x="0.375" y="3.6662" width="33.25" height="22.7885" rx="0.625" stroke="#D9A963" stroke-width="0.75"/>
<path d="M16.7404 4.81385C13.8481 1.92741 7.43899 1.09186 3.76127 1.00738C3.21522 0.994834 2.77884 1.44103 2.77884 1.98722V21.0928C2.77884 21.7037 3.32226 22.1699 3.93152 22.1246C9.64993 21.6998 14.9572 24.3679 17 25.8489V5.46551C17 5.22142 16.9132 4.98627 16.7404 4.81385Z" fill="#F9F3EE" stroke="#D9A963" stroke-width="0.75"/>
<path d="M17.0961 4.81385C19.9884 1.92741 26.3975 1.09186 30.0752 1.00738C30.6213 0.994834 31.0577 1.44103 31.0577 1.98722V21.0928C31.0577 21.7037 30.5143 22.1699 29.905 22.1246C24.1866 21.6998 18.8793 24.3679 16.8365 25.8489V5.46551C16.8365 5.22142 16.9233 4.98627 17.0961 4.81385Z" fill="#F9F3EE" stroke="#D9A963" stroke-width="0.75"/>
</svg>
